<?xml version="1.0" encoding="utf-8"?>
<!-- Generator: Adobe Illustrator 22.1.0, SVG Export Plug-In . SVG Version: 6.00 Build 0)  -->
<svg version="1.1" id="Layer_1" xmlns="http://www.w3.org/2000/svg" x="0px"
	 y="0px"
	 viewBox="0 0 184 184" style="enable-background:new 0 0 184 184;" xml:space="preserve">
<style type="text/css">
	.st0{fill:#7B00FF;}
</style>
    <g>
	<path class="st0" d="M138.7,96.6c4.8,0,8.7,4,8.7,8.7c0,4.7-4,8.7-8.7,8.7H76.6V91.4h4.1v18.5h58.1c2.5,0,4.6-2.1,4.6-4.6
		s-2.2-4.6-4.8-4.6h-54v-4.1H138.7L138.7,96.6z"/>
        <path class="st0" d="M98.6,70h-22v9.2h4.1V74h18c2.5,0,4.6,2.1,4.6,4.6s-2.2,4.8-4.7,4.8H45.3c-4.8,0-8.7,4-8.7,8.7
		c0,4.7,4,8.7,8.7,8.7h27.2v-4.1H45.3c-2.5,0-4.6-2.1-4.6-4.6s2.1-4.6,4.6-4.6h53.4c4.8,0,8.7-4,8.7-8.7
		C107.4,74.1,103.4,70,98.6,70L98.6,70z"/>
</g>
</svg>
